<svg width="32" height="35" viewBox="0 0 32 35" fill="none" xmlns="http://www.w3.org/2000/svg">
<path d="M28 17.1778C28 10.0633 22.628 4.29443 16 4.29443C9.372 4.29443 4 10.0633 4 17.1778C4 24.2938 9.372 30.0612 16 30.0612" stroke="white" stroke-width="2" stroke-miterlimit="10" stroke-linecap="round" stroke-linejoin="round"/>
<path d="M16 21.3836C18.1635 21.3836 19.9173 19.5006 19.9173 17.1779C19.9173 14.8551 18.1635 12.9722 16 12.9722C13.8365 12.9722 12.0827 14.8551 12.0827 17.1779C12.0827 19.5006 13.8365 21.3836 16 21.3836Z" stroke="white" stroke-width="2" stroke-miterlimit="10" stroke-linecap="round" stroke-linejoin="round"/>
<path d="M20.472 30.0613H23.472C24.9387 30.0613 26.1387 28.773 26.1387 27.1983V22.6648" stroke="white" stroke-width="2" stroke-miterlimit="10" stroke-linecap="round" stroke-linejoin="round"/>
<path d="M23.8427 25.1312L26.1347 22.6648L28.4333 25.1241" stroke="white" stroke-width="2" stroke-miterlimit="10" stroke-linecap="round" stroke-linejoin="round"/>
</svg>
