<svg width="30" height="24" viewBox="0 0 30 24" fill="none" xmlns="http://www.w3.org/2000/svg">
<path d="M6.05656 23.2253V21.7304C6.06527 21.6047 6.04709 21.4786 6.00323 21.3604C5.95938 21.2423 5.89084 21.1348 5.8022 21.0452C5.71356 20.9557 5.60685 20.886 5.48918 20.8409C5.3715 20.7958 5.24557 20.7763 5.11976 20.7837C4.95509 20.7729 4.79053 20.8065 4.64328 20.881C4.49602 20.9555 4.37147 21.0681 4.28262 21.2072C4.20163 21.0723 4.08574 20.9618 3.94718 20.8872C3.80862 20.8127 3.65251 20.7769 3.49531 20.7837C3.35828 20.7767 3.22182 20.8057 3.09946 20.8678C2.97709 20.9298 2.87307 21.0228 2.79769 21.1374V20.8434H2.27946V23.2253H2.80268V21.9148C2.79155 21.8333 2.79855 21.7504 2.82318 21.672C2.84782 21.5936 2.88947 21.5216 2.94517 21.4611C3.00087 21.4006 3.06924 21.3532 3.14539 21.3223C3.22154 21.2913 3.3036 21.2775 3.38568 21.282C3.72951 21.282 3.90391 21.5062 3.90391 21.9098V23.2353H4.42713V21.9148C4.41645 21.8334 4.42377 21.7507 4.44858 21.6725C4.47338 21.5942 4.51505 21.5224 4.57066 21.462C4.62626 21.4017 4.69444 21.3543 4.77038 21.3232C4.84632 21.292 4.92816 21.278 5.01013 21.282C5.36393 21.282 5.53335 21.5062 5.53335 21.9098V23.2353L6.05656 23.2253ZM13.7976 20.8434H12.9455V20.1209H12.4223V20.8434H11.9489V21.3168H12.4323V22.4131C12.4323 22.9662 12.6465 23.2951 13.2594 23.2951C13.4884 23.2958 13.713 23.2319 13.9072 23.1107L13.7577 22.6672C13.6188 22.7501 13.461 22.7964 13.2993 22.8018C13.0502 22.8018 12.9555 22.6423 12.9555 22.4031V21.3168H13.8026L13.7976 20.8434ZM18.2175 20.7837C18.0912 20.7799 17.9661 20.8104 17.8556 20.8718C17.7451 20.9332 17.6533 21.0232 17.5897 21.1325V20.8434H17.0764V23.2253H17.5946V21.8899C17.5946 21.4962 17.7641 21.277 18.0929 21.277C18.2038 21.2755 18.3138 21.2958 18.4168 21.3368L18.5763 20.8385C18.4579 20.7961 18.3332 20.7742 18.2075 20.7737L18.2175 20.7837ZM11.5353 21.0328C11.242 20.8584 10.9047 20.7719 10.5637 20.7837C9.96072 20.7837 9.56706 21.0727 9.56706 21.546C9.56706 21.9347 9.85608 22.1739 10.3893 22.2486L10.6384 22.2835C10.9224 22.3234 11.057 22.3981 11.057 22.5327C11.057 22.7171 10.8676 22.8217 10.5138 22.8217C10.2293 22.8299 9.95018 22.7422 9.72154 22.5725L9.47239 22.9762C9.77426 23.1869 10.1358 23.2952 10.5039 23.2851C11.1915 23.2851 11.5902 22.9612 11.5902 22.5078C11.5902 22.0543 11.2762 21.8699 10.758 21.7952L10.5088 21.7603C10.2846 21.7304 10.1052 21.6856 10.1052 21.5261C10.1052 21.3667 10.2746 21.2471 10.5587 21.2471C10.8212 21.2501 11.0785 21.3205 11.3061 21.4514L11.5353 21.0328ZM25.4154 20.7837C25.2891 20.7799 25.164 20.8104 25.0535 20.8718C24.943 20.9332 24.8512 21.0232 24.7876 21.1325V20.8434H24.2743V23.2253H24.7925V21.8899C24.7925 21.4962 24.962 21.277 25.2908 21.277C25.4017 21.2755 25.5117 21.2958 25.6147 21.3368L25.7742 20.8385C25.6558 20.7961 25.5311 20.7742 25.4054 20.7737L25.4154 20.7837ZM18.7382 22.0294C18.7321 22.1968 18.7609 22.3636 18.8229 22.5192C18.8849 22.6748 18.9787 22.8157 19.0983 22.933C19.2179 23.0502 19.3607 23.1412 19.5175 23.2002C19.6743 23.2591 19.8417 23.2846 20.0089 23.2751C20.32 23.291 20.6258 23.1896 20.866 22.9911L20.6168 22.5725C20.4377 22.7092 20.2192 22.7843 19.9939 22.7868C19.8024 22.7713 19.6237 22.6843 19.4934 22.543C19.3631 22.4017 19.2907 22.2166 19.2907 22.0244C19.2907 21.8322 19.3631 21.6471 19.4934 21.5058C19.6237 21.3646 19.8024 21.2775 19.9939 21.262C20.2192 21.2645 20.4377 21.3397 20.6168 21.4763L20.866 21.0577C20.6258 20.8592 20.32 20.7579 20.0089 20.7737C19.8417 20.7642 19.6743 20.7897 19.5175 20.8487C19.3607 20.9076 19.2179 20.9986 19.0983 21.1158C18.9787 21.2331 18.8849 21.374 18.8229 21.5296C18.7609 21.6852 18.7321 21.852 18.7382 22.0194V22.0294ZM23.5916 22.0294V20.8434H23.0734V21.1325C22.9854 21.0192 22.8717 20.9285 22.7418 20.8679C22.6118 20.8072 22.4693 20.7784 22.326 20.7837C21.9956 20.7837 21.6787 20.9149 21.4451 21.1485C21.2115 21.3821 21.0802 21.699 21.0802 22.0294C21.0802 22.3598 21.2115 22.6767 21.4451 22.9103C21.6787 23.1439 21.9956 23.2751 22.326 23.2751C22.4693 23.2804 22.6118 23.2516 22.7418 23.1909C22.8717 23.1303 22.9854 23.0396 23.0734 22.9263V23.2153H23.5916V22.0294ZM21.6632 22.0294C21.6715 21.8892 21.7206 21.7545 21.8044 21.6418C21.8883 21.5292 22.0033 21.4435 22.1352 21.3953C22.2672 21.3472 22.4103 21.3387 22.547 21.3709C22.6837 21.4031 22.808 21.4745 22.9047 21.5765C23.0013 21.6784 23.066 21.8064 23.0908 21.9446C23.1156 22.0829 23.0994 22.2253 23.0442 22.3545C22.9891 22.4837 22.8974 22.5939 22.7804 22.6716C22.6634 22.7493 22.5262 22.7911 22.3858 22.7918C22.2871 22.793 22.1893 22.7739 22.0984 22.7355C22.0075 22.6971 21.9256 22.6403 21.8577 22.5687C21.7898 22.4971 21.7375 22.4122 21.7041 22.3194C21.6706 22.2266 21.6567 22.1278 21.6632 22.0294ZM15.4096 20.7837C15.0792 20.7883 14.7642 20.924 14.5338 21.1609C14.3035 21.3977 14.1767 21.7164 14.1813 22.0468C14.1859 22.3772 14.3216 22.6923 14.5585 22.9226C14.7954 23.153 15.1141 23.2798 15.4445 23.2751C15.8029 23.2935 16.1555 23.1781 16.4336 22.9513L16.1845 22.5676C15.9877 22.7253 15.744 22.813 15.4918 22.8167C15.3205 22.8314 15.1502 22.7788 15.0172 22.6699C14.8841 22.561 14.7987 22.4045 14.7793 22.2337H16.5482C16.5482 22.1689 16.5482 22.1041 16.5482 22.0344C16.5482 21.2869 16.0848 20.7886 15.4171 20.7886L15.4096 20.7837ZM15.4096 21.2471C15.4871 21.2454 15.5643 21.2591 15.6365 21.2872C15.7088 21.3154 15.7748 21.3575 15.8308 21.4112C15.8868 21.4648 15.9317 21.529 15.9629 21.6001C15.994 21.6711 16.0109 21.7475 16.0125 21.8251H14.7668C14.7758 21.6652 14.8471 21.5151 14.9654 21.4071C15.0837 21.299 15.2395 21.2416 15.3996 21.2471H15.4096ZM28.3927 22.0344V19.8867H27.8944V21.1325C27.8064 21.0192 27.6928 20.9285 27.5628 20.8679C27.4328 20.8072 27.2903 20.7784 27.147 20.7837C26.8166 20.7837 26.4997 20.9149 26.2661 21.1485C26.0325 21.3821 25.9013 21.699 25.9013 22.0294C25.9013 22.3598 26.0325 22.6767 26.2661 22.9103C26.4997 23.1439 26.8166 23.2751 27.147 23.2751C27.2903 23.2804 27.4328 23.2516 27.5628 23.1909C27.6928 23.1303 27.8064 23.0396 27.8944 22.9263V23.2153H28.3927V22.0344ZM29.2573 22.879C29.2897 22.8786 29.3218 22.8845 29.352 22.8964C29.3806 22.9081 29.4068 22.925 29.4292 22.9463C29.4511 22.9677 29.4688 22.9931 29.4815 23.021C29.4941 23.0501 29.5007 23.0815 29.5007 23.1132C29.5007 23.1449 29.4941 23.1763 29.4815 23.2054C29.4688 23.2333 29.4511 23.2586 29.4292 23.2801C29.4068 23.3014 29.3806 23.3183 29.352 23.33C29.3221 23.3431 29.2899 23.3499 29.2573 23.3499C29.2101 23.3495 29.1639 23.3358 29.1242 23.3102C29.0845 23.2846 29.0529 23.2482 29.0331 23.2054C29.0206 23.1762 29.0142 23.1449 29.0142 23.1132C29.0142 23.0815 29.0206 23.0501 29.0331 23.021C29.0457 22.9931 29.0635 22.9677 29.0854 22.9463C29.1078 22.925 29.134 22.9081 29.1626 22.8964C29.1951 22.8835 29.2299 22.8776 29.2648 22.879H29.2573ZM29.2573 23.3001C29.2822 23.3002 29.3068 23.2951 29.3295 23.2851C29.351 23.2755 29.3704 23.262 29.3868 23.2452C29.418 23.2112 29.4353 23.1668 29.4353 23.1207C29.4353 23.0745 29.418 23.0301 29.3868 22.9961C29.3705 22.9793 29.351 22.9657 29.3295 22.9562C29.3068 22.9463 29.2821 22.9412 29.2573 22.9413C29.2325 22.9414 29.2079 22.9465 29.185 22.9562C29.1626 22.9654 29.1423 22.979 29.1252 22.9961C29.0941 23.0301 29.0768 23.0745 29.0768 23.1207C29.0768 23.1668 29.0941 23.2112 29.1252 23.2452C29.1424 23.2623 29.1627 23.2759 29.185 23.2851C29.2102 23.2959 29.2374 23.3011 29.2648 23.3001H29.2573ZM29.2722 23.0036C29.2955 23.0024 29.3184 23.0095 29.337 23.0235C29.3446 23.0298 29.3507 23.0379 29.3546 23.047C29.3585 23.0561 29.3601 23.0659 29.3594 23.0758C29.3598 23.0841 29.3584 23.0924 29.3554 23.1001C29.3524 23.1078 29.3479 23.1148 29.342 23.1207C29.3276 23.1338 29.3091 23.1417 29.2897 23.1431L29.3619 23.2253H29.3046L29.2374 23.1431H29.2149V23.2253H29.1676V23.0061L29.2722 23.0036ZM29.2174 23.0459V23.1057H29.2722C29.282 23.1086 29.2924 23.1086 29.3021 23.1057C29.3039 23.1022 29.3048 23.0984 29.3048 23.0945C29.3048 23.0906 29.3039 23.0868 29.3021 23.0833C29.3039 23.0798 29.3048 23.076 29.3048 23.0721C29.3048 23.0682 29.3039 23.0644 29.3021 23.0609C29.2924 23.058 29.282 23.058 29.2722 23.0609L29.2174 23.0459ZM26.4768 22.0344C26.4851 21.8942 26.5341 21.7595 26.618 21.6468C26.7019 21.5341 26.8168 21.4485 26.9488 21.4003C27.0807 21.3522 27.2239 21.3437 27.3606 21.3759C27.4973 21.408 27.6216 21.4795 27.7182 21.5814C27.8148 21.6834 27.8795 21.8114 27.9043 21.9496C27.9291 22.0878 27.9129 22.2303 27.8578 22.3595C27.8026 22.4886 27.7109 22.5989 27.5939 22.6766C27.4769 22.7543 27.3398 22.796 27.1993 22.7968C27.1007 22.798 27.0028 22.7788 26.912 22.7404C26.8211 22.702 26.7391 22.6453 26.6713 22.5736C26.6034 22.502 26.5511 22.4172 26.5176 22.3244C26.4842 22.2315 26.4702 22.1328 26.4768 22.0344ZM8.97907 22.0344V20.8434H8.46084V21.1325C8.37284 21.0192 8.25916 20.9285 8.1292 20.8679C7.99924 20.8072 7.85672 20.7784 7.7134 20.7837C7.38301 20.7837 7.06615 20.9149 6.83252 21.1485C6.5989 21.3821 6.46765 21.699 6.46765 22.0294C6.46765 22.3598 6.5989 22.6767 6.83252 22.9103C7.06615 23.1439 7.38301 23.2751 7.7134 23.2751C7.85672 23.2804 7.99924 23.2516 8.1292 23.1909C8.25916 23.1303 8.37284 23.0396 8.46084 22.9263V23.2153H8.97907V22.0344ZM7.05066 22.0344C7.05893 21.8942 7.10801 21.7595 7.19188 21.6468C7.27574 21.5341 7.39072 21.4485 7.52266 21.4003C7.6546 21.3522 7.79774 21.3437 7.93445 21.3759C8.07116 21.408 8.19547 21.4795 8.29208 21.5814C8.38869 21.6834 8.45338 21.8114 8.47818 21.9496C8.50298 22.0878 8.48681 22.2303 8.43166 22.3595C8.37652 22.4886 8.2848 22.5989 8.1678 22.6766C8.0508 22.7543 7.91364 22.796 7.77319 22.7968C7.67413 22.7987 7.57574 22.7801 7.48427 22.742C7.3928 22.7039 7.31025 22.6472 7.24184 22.5755C7.17344 22.5038 7.12068 22.4187 7.08691 22.3256C7.05314 22.2324 7.0391 22.1332 7.04568 22.0344H7.05066Z" fill="white"/>
<path d="M19.2116 2.69312H11.3634V16.7974H19.2116V2.69312Z" fill="#FF5F00"/>
<path d="M11.8617 9.74624C11.8603 8.3877 12.168 7.04664 12.7615 5.82461C13.355 4.60258 14.2188 3.53163 15.2875 2.69284C13.9643 1.65295 12.3752 1.0063 10.7019 0.826803C9.02859 0.647306 7.33852 0.942202 5.82487 1.67779C4.31122 2.41337 3.03505 3.55997 2.14221 4.98653C1.24938 6.4131 0.775909 8.06207 0.775909 9.745C0.775909 11.4279 1.24938 13.0769 2.14221 14.5035C3.03505 15.93 4.31122 17.0766 5.82487 17.8122C7.33852 18.5478 9.02859 18.8427 10.7019 18.6632C12.3752 18.4837 13.9643 17.837 15.2875 16.7971C14.2192 15.9586 13.3556 14.8881 12.762 13.6665C12.1685 12.4449 11.8606 11.1044 11.8617 9.74624Z" fill="#EB001B"/>
<path d="M29.8004 9.74654C29.8004 11.4296 29.3268 13.0787 28.4338 14.5053C27.5408 15.9319 26.2644 17.0785 24.7506 17.814C23.2368 18.5494 21.5465 18.8441 19.8731 18.6644C18.1997 18.4846 16.6106 17.8377 15.2875 16.7975C16.3554 15.9582 17.2188 14.8873 17.8125 13.6657C18.4061 12.4441 18.7146 11.1035 18.7146 9.7453C18.7146 8.38705 18.4061 7.04654 17.8125 5.8249C17.2188 4.60327 16.3554 3.53242 15.2875 2.69314C16.6106 1.65293 18.1997 1.00596 19.8731 0.82621C21.5465 0.646456 23.2368 0.941162 24.7506 1.67664C26.2644 2.41212 27.5408 3.5587 28.4338 4.98531C29.3268 6.41192 29.8004 8.06101 29.8004 9.74405V9.74654Z" fill="#F79E1B"/>
<path d="M28.9433 15.3027V15.0137H29.0604V14.9539H28.7639V15.0137H28.891V15.3027H28.9433ZM29.5189 15.3027V14.9539H29.4292L29.3245 15.203L29.2199 14.9539H29.1402V15.3027H29.2049V15.0411L29.3021 15.2678H29.3694L29.4665 15.0411V15.3052L29.5189 15.3027Z" fill="#F79E1B"/>
</svg>
