<svg width="32" height="32" viewBox="0 0 32 32" fill="none" xmlns="http://www.w3.org/2000/svg">
<path d="M28 10.2507V4H4V13.412H11.5813" stroke="white" stroke-width="2" stroke-miterlimit="10" stroke-linecap="round" stroke-linejoin="round"/>
<path d="M9.14 10.0453C9.99935 10.0453 10.696 9.3487 10.696 8.48935C10.696 7.62999 9.99935 6.93335 9.14 6.93335C8.28064 6.93335 7.584 7.62999 7.584 8.48935C7.584 9.3487 8.28064 10.0453 9.14 10.0453Z" fill="white"/>
<path d="M13.696 10.0453C14.5554 10.0453 15.252 9.3487 15.252 8.48935C15.252 7.62999 14.5554 6.93335 13.696 6.93335C12.8366 6.93335 12.14 7.62999 12.14 8.48935C12.14 9.3487 12.8366 10.0453 13.696 10.0453Z" fill="white"/>
<path d="M18.252 10.0453C19.1114 10.0453 19.808 9.3487 19.808 8.48935C19.808 7.62999 19.1114 6.93335 18.252 6.93335C17.3926 6.93335 16.696 7.62999 16.696 8.48935C16.696 9.3487 17.3926 10.0453 18.252 10.0453Z" fill="white"/>
<path d="M26.9173 22.5561C26.9173 21.0894 25.7173 19.8894 24.2507 19.8894H18.6667C17.2 19.8894 16 21.0894 16 22.5561V25.3334C16 26.8001 17.2 28.0001 18.6667 28.0001H24.2507C25.7173 28.0001 26.9173 26.8001 26.9173 25.3334V22.5561Z" stroke="white" stroke-width="2" stroke-miterlimit="10" stroke-linecap="round" stroke-linejoin="round"/>
<path d="M24.4587 16.8894C24.4587 15.2321 23.1147 13.8894 21.4587 13.8894C19.8027 13.8894 18.4587 15.2321 18.4587 16.8894" stroke="white" stroke-width="2" stroke-miterlimit="10" stroke-linecap="round" stroke-linejoin="round"/>
</svg>
