<svg width="157" height="40" viewBox="0 0 157 40" fill="none" xmlns="http://www.w3.org/2000/svg">
<path d="M50.2362 31.3385L52.189 26.8031C54.2992 28.3779 57.1023 29.1968 59.874 29.1968C61.9212 29.1968 63.2126 28.4094 63.2126 27.2126C63.1811 23.874 50.9606 26.4881 50.8661 18.1102C50.8346 13.8582 54.6142 10.5826 59.9685 10.5826C63.1496 10.5826 66.3307 11.37 68.5984 13.1653L66.7716 17.7952C64.6929 16.4724 62.1102 15.5275 59.6535 15.5275C57.9842 15.5275 56.8819 16.3149 56.8819 17.3228C56.9134 20.5984 69.2283 18.8031 69.3543 26.8031C69.3543 31.1496 65.6693 34.2047 60.3779 34.2047C56.5039 34.2047 52.9449 33.2913 50.2362 31.3385ZM125.165 25.1653C124.189 26.8661 122.362 28.0315 120.252 28.0315C117.134 28.0315 114.614 25.5118 114.614 22.3937C114.614 19.2755 117.134 16.7559 120.252 16.7559C122.362 16.7559 124.189 17.9212 125.165 19.622L130.551 16.6299C128.535 13.0393 124.661 10.5826 120.252 10.5826C113.732 10.5826 108.441 15.874 108.441 22.3937C108.441 28.9133 113.732 34.2047 120.252 34.2047C124.693 34.2047 128.535 31.7795 130.551 28.1574L125.165 25.1653ZM72.063 0.787354H78.8031V33.7637H72.063V0.787354ZM133.197 0.787354V33.7637H139.937V23.874L147.937 33.7637H156.567L146.394 22.0157L155.811 11.0551H147.559L139.937 20.1574V0.787354H133.197ZM98.8346 25.2283C97.8582 26.8346 95.8425 28.0315 93.5748 28.0315C90.4567 28.0315 87.937 25.5118 87.937 22.3937C87.937 19.2755 90.4567 16.7559 93.5748 16.7559C95.8425 16.7559 97.8582 18.0157 98.8346 19.6535V25.2283ZM98.8346 11.0551V13.7322C97.7323 11.874 94.9921 10.5826 92.126 10.5826C86.2047 10.5826 81.5433 15.811 81.5433 22.3622C81.5433 28.9133 86.2047 34.2047 92.126 34.2047C94.9921 34.2047 97.7323 32.9133 98.8346 31.0551V33.7322H105.575V11.0551H98.8346Z" fill="black"/>
<path d="M8.56691 25.1968C8.56691 27.496 6.70865 29.3543 4.40943 29.3543C2.11022 29.3543 0.251953 27.496 0.251953 25.1968C0.251953 22.8976 2.11022 21.0393 4.40943 21.0393H8.56691V25.1968ZM10.6457 25.1968C10.6457 22.8976 12.5039 21.0393 14.8031 21.0393C17.1023 21.0393 18.9606 22.8976 18.9606 25.1968V35.5905C18.9606 37.8897 17.1023 39.748 14.8031 39.748C12.5039 39.748 10.6457 37.8897 10.6457 35.5905V25.1968Z" fill="#E01E5A"/>
<path d="M14.8031 8.50393C12.5039 8.50393 10.6457 6.64566 10.6457 4.34645C10.6457 2.04723 12.5039 0.188965 14.8031 0.188965C17.1023 0.188965 18.9606 2.04723 18.9606 4.34645V8.50393H14.8031ZM14.8031 10.6142C17.1023 10.6142 18.9606 12.4724 18.9606 14.7716C18.9606 17.0709 17.1023 18.9291 14.8031 18.9291H4.37794C2.07873 18.9291 0.220459 17.0709 0.220459 14.7716C0.220459 12.4724 2.07873 10.6142 4.37794 10.6142H14.8031Z" fill="#36C5F0"/>
<path d="M31.4646 14.7716C31.4646 12.4724 33.3228 10.6142 35.622 10.6142C37.9213 10.6142 39.7795 12.4724 39.7795 14.7716C39.7795 17.0709 37.9213 18.9291 35.622 18.9291H31.4646V14.7716ZM29.3858 14.7716C29.3858 17.0709 27.5276 18.9291 25.2283 18.9291C22.9291 18.9291 21.0709 17.0709 21.0709 14.7716V4.34645C21.0709 2.04723 22.9291 0.188965 25.2283 0.188965C27.5276 0.188965 29.3858 2.04723 29.3858 4.34645V14.7716Z" fill="#2EB67D"/>
<path d="M25.2283 31.433C27.5276 31.433 29.3858 33.2913 29.3858 35.5905C29.3858 37.8897 27.5276 39.748 25.2283 39.748C22.9291 39.748 21.0709 37.8897 21.0709 35.5905V31.433H25.2283ZM25.2283 29.3543C22.9291 29.3543 21.0709 27.496 21.0709 25.1968C21.0709 22.8976 22.9291 21.0393 25.2283 21.0393H35.6535C37.9527 21.0393 39.811 22.8976 39.811 25.1968C39.811 27.496 37.9527 29.3543 35.6535 29.3543H25.2283Z" fill="#ECB22E"/>
</svg>
