<svg width="62" height="20" viewBox="0 0 62 20" fill="none" xmlns="http://www.w3.org/2000/svg">
<path d="M26.7788 19.7114H21.7728L24.9039 0.35083H29.9096L26.7788 19.7114Z" fill="white"/>
<path d="M44.9261 0.824254C43.9387 0.432522 42.3726 0 40.4361 0C35.4925 0 32.0113 2.63619 31.9899 6.40515C31.9488 9.18587 34.4824 10.7304 36.3773 11.6575C38.314 12.605 38.9724 13.2234 38.9724 14.0679C38.9527 15.3649 37.4074 15.9628 35.9661 15.9628C33.9675 15.9628 32.8966 15.6545 31.2691 14.9329L30.6099 14.6236L29.9094 18.9696C31.0835 19.5045 33.2467 19.9792 35.4925 20C40.7452 20 44.1648 17.4046 44.2053 13.3882C44.2253 11.1842 42.8875 9.49548 40.0033 8.11552C38.2524 7.22967 37.1802 6.63236 37.1802 5.72598C37.2007 4.902 38.0871 4.05803 40.0635 4.05803C41.691 4.0167 42.8867 4.40788 43.7925 4.79934L44.2453 5.00493L44.9261 0.824254Z" fill="white"/>
<path d="M51.5795 12.8526C51.9918 11.7404 53.5781 7.43569 53.5781 7.43569C53.5573 7.47703 53.9896 6.30292 54.2368 5.58215L54.5866 7.25036C54.5866 7.25036 55.5346 11.8846 55.7405 12.8526C54.9581 12.8526 52.5683 12.8526 51.5795 12.8526ZM57.7588 0.35083H53.8866C52.6925 0.35083 51.7853 0.700679 51.2702 1.95718L43.8344 19.7111H49.087C49.087 19.7111 49.9518 17.3215 50.1377 16.8069C50.7139 16.8069 55.8237 16.8069 56.565 16.8069C56.7087 17.4866 57.1623 19.7111 57.1623 19.7111H61.7974L57.7588 0.35083Z" fill="white"/>
<path d="M17.5916 0.35083L12.6891 13.5529L12.1533 10.8753C11.247 7.78581 8.40436 4.42912 5.23218 2.76008L9.72273 19.6908H15.0165L22.8851 0.35083H17.5916Z" fill="white"/>
<path d="M8.1366 0.35083H0.0823977L0 0.742015C6.28278 2.34864 10.4437 6.22135 12.1533 10.8762L10.4024 1.97826C10.1142 0.741742 9.2283 0.391618 8.1366 0.35083Z" fill="#FAA61A"/>
</svg>
